<?xml version="1.0" encoding="iso-8859-1"?>
<!-- Generator: Adobe Illustrator 19.0.0, SVG Export Plug-In . SVG Version: 6.00 Build 0)  -->
<svg stroke="#ffffff" version="1.1" id="Capa_1" xmlns="http://www.w3.org/2000/svg" xmlns:xlink="http://www.w3.org/1999/xlink" x="0px" y="0px"
	 viewBox="0 0 490 490" style="enable-background:new 0 0 490 490;" xml:space="preserve">
<g>
	<g>
		<g>
			<path stroke="#ffffff" d="M20.8,223.15h447.3c21.8,1.1,19.8-21.8,19.8-22.9c-1-114.4-92.6-199.7-212.2-199.7h-63.5C91.5,0.45,0,87.85,0,202.25
				C0,213.75,9.4,223.15,20.8,223.15z M212.2,41.05h63.5c90.5,0,160.2,59.3,170.6,141.5H41.6C52,100.35,121.7,41.05,212.2,41.05z"/>
			<path d="M469.2,357.35H20.8c-11.4,0-20.8,9.4-20.8,20.8c0,64.5,51,111.3,121.7,111.3h245.5c70.7,0,121.7-46.8,122.8-111.3
				C490,366.65,480.6,357.35,469.2,357.35z M367.2,448.85H121.7c-33.3,0-67.6-15.6-78-49.9h401.6
				C434.9,433.25,400.5,448.85,367.2,448.85z"/>
		</g>
		<path d="M467.1,277.75c-20.8-4.8-28.7-18.7-64-18.7c-33.6,0-36.4,20.3-79,20.3c-33.6,0-36.4-20.3-79-20.3
			c-33.6,0-36.4,20.3-79,20.3s-45.4-20.3-79-20.3c-35.3,0-43.3,13.9-64,18.7c-8.8,2-15,9.9-15,19l0,0c0,14.1,14.5,23.6,27.4,17.8
			c13.3-6,24.2-14.4,51.7-14.4c33.6,0,36.4,20.3,79,20.3s45.4-20.3,79-20.3c42.7,0,45.4,20.3,79,20.3c42.7,0,45.4-20.3,79-20.3
			c27.5,0,38.4,8.4,51.7,14.4c12.8,5.8,27.4-3.7,27.4-17.8l0,0C482.1,287.65,475.9,279.75,467.1,277.75z"/>
	</g>
</g>
<g>
</g>
<g>
</g>
<g>
</g>
<g>
</g>
<g>
</g>
<g>
</g>
<g>
</g>
<g>
</g>
<g>
</g>
<g>
</g>
<g>
</g>
<g>
</g>
<g>
</g>
<g>
</g>
<g>
</g>
</svg>
